<?xml version="1.0" encoding="UTF-8" standalone="no"?>
<svg
   xmlns:dc="http://purl.org/dc/elements/1.1/"
   xmlns:cc="http://creativecommons.org/ns#"
   xmlns:rdf="http://www.w3.org/1999/02/22-rdf-syntax-ns#"
   xmlns:svg="http://www.w3.org/2000/svg"
   xmlns="http://www.w3.org/2000/svg"
   xmlns:sodipodi="http://sodipodi.sourceforge.net/DTD/sodipodi-0.dtd"
   xmlns:inkscape="http://www.inkscape.org/namespaces/inkscape"
   width="64"
   height="40"
   version="1.1"
   id="svg8"
   sodipodi:docname="icon-suvs.svg"
   inkscape:export-filename="C:\Users\USER\Desktop\front-end design\3-column-preview-card-component-main\3-columns code\image\suvs.png"
   inkscape:export-xdpi="96"
   inkscape:export-ydpi="96"
   inkscape:version="1.0.2-2 (e86c870879, 2021-01-15)">
  <metadata
     id="metadata14">
    <rdf:RDF>
      <cc:Work
         rdf:about="">
        <dc:format>image/svg+xml</dc:format>
        <dc:type
           rdf:resource="http://purl.org/dc/dcmitype/StillImage" />
      </cc:Work>
    </rdf:RDF>
  </metadata>
  <defs
     id="defs12" />
  <sodipodi:namedview
     pagecolor="#ffffff"
     bordercolor="#666666"
     borderopacity="1"
     objecttolerance="10"
     gridtolerance="10"
     guidetolerance="10"
     inkscape:pageopacity="0"
     inkscape:pageshadow="2"
     inkscape:window-width="776"
     inkscape:window-height="480"
     id="namedview10"
     showgrid="false"
     inkscape:zoom="6.1706093"
     inkscape:cx="32"
     inkscape:cy="20"
     inkscape:window-x="0"
     inkscape:window-y="0"
     inkscape:window-maximized="0"
     inkscape:current-layer="svg8" />
  <g
     fill="none"
     fill-rule="evenodd"
     id="g6">
    <circle
       fill="#000"
       opacity=".201"
       cx="20"
       cy="20"
       r="20"
       id="circle2" />
    <path
       d="M31.002 22.358c2.917 0 5.18 2.593 4.762 5.506a4.828 4.828 0 01-2.962 3.778 4.797 4.797 0 01-5.3-1.165c-1.188-1.26-1.235-2.613-1.263-2.613-.42-2.924 1.857-5.506 4.763-5.506zm22 0c3.457 0 5.798 3.567 4.41 6.744A4.816 4.816 0 0152.3 31.94a4.826 4.826 0 01-4.06-4.077c-.42-2.915 1.846-5.506 4.762-5.506zm-15.04-6.083v1.462a1.29 1.29 0 001.352 1.29c.693-.033 1.227-.631 1.227-1.326v-1.426h8.3l13.056.716a1.29 1.29 0 011.164.917c.27.895.446 1.477.563 1.87h-1.047c-.694 0-1.291.534-1.324 1.228a1.29 1.29 0 001.288 1.352h1.445c-.164 2.225-1.57 4.193-3.6 5.05.13-4.212-3.255-7.63-7.384-7.63-4.317 0-7.762 3.718-7.358 8.086h-7.285c.43-4.655-3.503-8.531-8.131-8.046v-3.543h7.734zm-10.312 0v4.308a7.4 7.4 0 00-4.006 7.274 3.874 3.874 0 01-3.642-3.864v-1.635h1.46a1.29 1.29 0 000-2.58h-1.461v-3.213l.003-.29h7.646zm14.986-8.196c2.65 0 5 1.592 5.984 4.055l.63 1.579a5.525 5.525 0 01-.065-.004l-.026-.002-.034-.002-.022-.002a4.178 4.178 0 00-.224-.006l-.098-.001h-.039l-.136-.001h-.052l-.326-.001H40.211L38.528 8.08zm-13.632 0l-1.122 5.616h-7.144l1.47-4.71a1.29 1.29 0 011.231-.906h5.565zm6.832 0l1.683 5.615h-7.007l1.121-5.615h4.203z"
       fill="#26B5C0"
       fill-rule="nonzero"
       id="path4" />
  </g>
</svg>
